<?xml version="1.0" encoding="utf-8"?>
<!-- Generator: Adobe Illustrator 27.7.0, SVG Export Plug-In . SVG Version: 6.00 Build 0)  -->
<svg version="1.1" xmlns="http://www.w3.org/2000/svg" xmlns:xlink="http://www.w3.org/1999/xlink" x="0px" y="0px"
	 viewBox="0 0 517.48 194.83" style="enable-background:new 0 0 517.48 194.83;" xml:space="preserve">
<style type="text/css">
	.st0{fill:#004187;}
	.st1{fill:url(#SVGID_1_);}
	.st2{fill:url(#SVGID_00000174598907255630107950000009909282078712009617_);}
	.st3{fill:url(#SVGID_00000116225794532833640620000014558103301287845543_);}
</style>
<g>
	<g>
		<g>
			<path class="st0" d="M174,100.76v32.51h-13.39v-48c0-0.94,0.36-1.23,1.45-1.23h11.87c0.94,0,1.45,0.29,1.81,0.94l18.97,29.32
				l18.1-29.03c0.51-0.8,0.8-1.23,1.88-1.23H227v49.23h-13.39v-32.73l-19.11,31.28h-0.29L174,100.76z"/>
			<path class="st0" d="M249.6,126.75h22.01v6.52h-37.21V94.82c0-0.8,0.36-0.94,1.16-0.94h36.64l-2.32,6.52H249.6v8.76h17.96v6.52
				H249.6V126.75z"/>
			<path class="st0" d="M289.28,133.27v-32.29H274.8v-7.1h45.32l-2.9,7.1h-12.74v32.29H289.28z"/>
			<path class="st0" d="M322.95,133.27V95.04c0-1.01,0.22-1.16,1.38-1.16h17.23c13.47,0,22.08,2.61,22.08,12.74
				c0,8.98-8.54,13.47-22.08,13.47h-3.4v13.18H322.95z M338.15,113.57h3.4c4.2,0,6.3-1.67,6.3-6.88c0-5.29-2.53-6.3-6.23-6.3h-3.47
				V113.57z"/>
			<path class="st0" d="M366.53,133.27h-7.46l16.8-39.39h15.21l16.8,38.37c0.29,0.72-2.75,1.01-3.62,1.01h-12.24l-3.47-8.18H373.2
				l-3.04,7.17C369.86,132.98,367.4,133.27,366.53,133.27z M380.94,107.13l-4.92,11.44h9.78L380.94,107.13z"/>
			<path class="st0" d="M442.41,115.67h-16.65v17.59h-15.2V94.89c0-0.8,0.29-1.01,1.16-1.01h14.05v15.28h16.65V94.89
				c0-0.8,0.29-1.01,1.16-1.01h14.05v39.39h-15.21V115.67z"/>
		</g>
		<path class="st0" d="M169.67,60.73h-6.12l0.02,10.44h-2.96V58.3h9.08L169.67,60.73z"/>
		<path class="st0" d="M186.67,58.87c0.84,0.38,1.49,0.92,1.94,1.62c0.45,0.7,0.68,1.53,0.68,2.48c0,0.94-0.23,1.77-0.68,2.47
			c-0.45,0.71-1.1,1.24-1.94,1.62c-0.84,0.37-1.83,0.56-2.97,0.56h-2.59v3.55h-2.98V58.3h5.57
			C184.84,58.3,185.83,58.49,186.67,58.87z M185.57,64.62c0.47-0.39,0.7-0.93,0.7-1.65c0-0.72-0.23-1.28-0.7-1.66
			c-0.47-0.39-1.15-0.58-2.04-0.58h-2.43v4.47h2.43C184.43,65.19,185.11,65,185.57,64.62z"/>
		<path class="st0" d="M209.21,58.3l-5.48,10.18c-0.53,0.98-1.16,1.72-1.9,2.22c-0.74,0.5-1.55,0.75-2.42,0.75
			c-0.67,0-1.37-0.15-2.1-0.44l0.72-2.26c0.51,0.16,0.94,0.24,1.29,0.24c0.37,0,0.7-0.09,0.99-0.27c0.29-0.18,0.56-0.46,0.81-0.84
			l0.11-0.15l-5.07-9.45h3.18l3.42,6.91l3.53-6.91H209.21z"/>
		<path class="st0" d="M228.97,58.3v12.87h-2.96V60.73h-5.81v10.44h-2.96V58.3H228.97z"/>
		<path class="st0" d="M250.51,58.3v12.87h-2.96V60.73h-5.81v10.44h-2.96V58.3H250.51z"/>
		<path class="st0" d="M269.04,68.41h-5.97l-1.14,2.76h-3.05l5.74-12.87h2.94l5.75,12.87h-3.13L269.04,68.41z M268.1,66.15
			l-2.04-4.93l-2.04,4.93H268.1z"/>
		<path class="st0" d="M298.43,65.99h-2.06v5.18h-2.96V58.3h2.96v5.2h2.13l3.38-5.2h3.14l-4.21,6.21l4.34,6.65h-3.38L298.43,65.99z"
			/>
		<path class="st0" d="M315.65,70.53c-1.07-0.58-1.91-1.37-2.52-2.38s-0.91-2.15-0.91-3.41c0-1.26,0.3-2.4,0.91-3.41
			c0.61-1.01,1.45-1.8,2.52-2.38c1.07-0.58,2.28-0.86,3.61-0.86c1.34,0,2.54,0.29,3.6,0.86c1.07,0.58,1.9,1.37,2.52,2.38
			c0.61,1.01,0.92,2.15,0.92,3.41c0,1.26-0.31,2.4-0.92,3.41c-0.61,1.01-1.45,1.8-2.52,2.38c-1.07,0.58-2.27,0.86-3.6,0.86
			C317.93,71.39,316.72,71.1,315.65,70.53z M321.32,68.33c0.61-0.35,1.09-0.84,1.44-1.46c0.35-0.62,0.53-1.34,0.53-2.13
			c0-0.8-0.18-1.51-0.53-2.13c-0.35-0.62-0.83-1.11-1.44-1.46c-0.61-0.35-1.3-0.52-2.06-0.52c-0.76,0-1.45,0.17-2.06,0.52
			c-0.61,0.35-1.09,0.84-1.44,1.46c-0.35,0.63-0.52,1.34-0.52,2.13c0,0.8,0.17,1.51,0.52,2.13c0.35,0.63,0.83,1.11,1.44,1.46
			c0.61,0.35,1.3,0.52,2.06,0.52C320.02,68.85,320.71,68.68,321.32,68.33z"/>
		<path class="st0" d="M346.92,71.17l-0.02-7.7l-3.79,6.34h-1.32l-3.79-6.19v7.56h-2.79V58.3h2.46l4.82,8l4.74-8h2.46l0.02,12.87
			H346.92z"/>
		<path class="st0" d="M371.26,58.3v12.87h-2.96V60.73h-5.81v10.44h-2.96V58.3H371.26z"/>
		<path class="st0" d="M389.79,68.41h-5.98l-1.14,2.76h-3.05l5.73-12.87h2.94l5.75,12.87h-3.12L389.79,68.41z M388.85,66.15
			l-2.04-4.93l-2.04,4.93H388.85z"/>
		<path class="st0" d="M414.18,58.3v12.87h-2.98v-5.28h-5.85v5.28h-2.98V58.3h2.98v5.07h5.85V58.3H414.18z"/>
		<path class="st0" d="M424.02,58.3h2.96v8.38l6.14-8.38h2.79v12.87h-2.94v-8.36l-6.14,8.36h-2.81V58.3z"/>
		<path class="st0" d="M445.73,58.3h2.96v8.38l6.14-8.38h2.79v12.87h-2.94v-8.36l-6.14,8.36h-2.81V58.3z M448.1,54.66h2.04
			c0.02,0.89,0.53,1.34,1.53,1.34c0.49,0,0.86-0.11,1.12-0.34c0.26-0.23,0.39-0.56,0.4-1h2.04c-0.01,0.92-0.31,1.62-0.9,2.1
			c-0.59,0.48-1.48,0.72-2.67,0.72C449.31,57.47,448.12,56.54,448.1,54.66z"/>
	</g>
	<g>
		<linearGradient id="SVGID_1_" gradientUnits="userSpaceOnUse" x1="122.4546" y1="67.9973" x2="107.7427" y2="126.5535">
			<stop  offset="0" style="stop-color:#D3D8EA"/>
			<stop  offset="0.5657" style="stop-color:#B6C2D9"/>
			<stop  offset="0.6156" style="stop-color:#ACB9D4"/>
			<stop  offset="0.6996" style="stop-color:#91A1C7"/>
			<stop  offset="0.8073" style="stop-color:#657EB2"/>
			<stop  offset="0.9333" style="stop-color:#2B5595"/>
			<stop  offset="1" style="stop-color:#004187"/>
		</linearGradient>
		<path class="st1" d="M137.68,83.85c0.16,0.55,0.22,1.1,0.19,1.63c0,0.06-0.01,0.12-0.01,0.18c-0.03,0.42-0.1,0.84-0.21,1.25
			l-7.81,31.34c-0.1,0.4-0.23,0.78-0.39,1.15c-0.24,0.56-0.58,1.09-1.03,1.56c-1.96,2.03-5.19,2.08-7.22,0.13l-1.15-1.11l9.77-39.19
			l1.54-0.44C134.07,79.57,136.9,81.14,137.68,83.85z M135.47,79.3l-5.54-5.35c-0.13-0.13-0.28-0.24-0.42-0.35
			c0.98,1.2,1.4,2.84,0.99,4.46l-0.68,2.73l1.54-0.44c2.71-0.78,5.54,0.79,6.31,3.5c0.16,0.55,0.22,1.1,0.19,1.63
			C138.01,83.2,137.15,80.93,135.47,79.3z M125.03,72.77l-5.29,1.52l-2.52,10.12l10.02-2.87l1.33-5.34
			c0.28-1.13,0.16-2.27-0.27-3.27C127.29,72.53,126.15,72.45,125.03,72.77z M123.09,70.9l-2.71,0.78l-0.65,2.61l5.29-1.52
			c1.12-0.32,2.26-0.24,3.27,0.15c-0.18-0.42-0.42-0.82-0.72-1.18C126.34,70.8,124.7,70.44,123.09,70.9z M127.21,71.32l-6.71-6.48
			l0,0c-0.13-0.13-0.28-0.24-0.42-0.35c0.98,1.2,1.4,2.84,0.99,4.46l-0.68,2.73l2.71-0.78c1.61-0.46,3.25-0.1,4.49,0.84
			C127.46,71.59,127.34,71.46,127.21,71.32L127.21,71.32z M117.21,84.4l-6.6,26.46l7.5,7.24l9.12-36.58L117.21,84.4z M115.59,63.66
			l-5.29,1.52l-2.52,10.12l10.02-2.87l1.33-5.34c0.28-1.13,0.16-2.27-0.27-3.26C117.86,63.41,116.71,63.33,115.59,63.66z
			 M113.65,61.79l-2.71,0.78l-0.65,2.61l5.29-1.52c1.12-0.32,2.26-0.24,3.27,0.15c-0.18-0.42-0.42-0.82-0.71-1.18
			C116.91,61.69,115.26,61.32,113.65,61.79z M112.24,56.87c-1.73-1.67-4.11-2.45-6.45-2.16c0.6-0.07,1.22-0.04,1.83,0.12
			c2.74,0.68,4.4,3.45,3.72,6.19l-0.39,1.55l2.71-0.78c1.61-0.46,3.26-0.1,4.5,0.84c-0.12-0.15-0.24-0.29-0.38-0.42L112.24,56.87z
			 M107.78,75.29l-0.65,2.61l10.02-2.87l0.65-2.61L107.78,75.29z M107.12,77.9l-2.52,10.12l10.02-2.87l2.52-10.12L107.12,77.9z
			 M104.6,88.02l-3.42,13.73l7.5,7.24l5.95-23.85L104.6,88.02z M108.09,120.99l-0.65,2.61l2.02,1.95c1.2,1.16,2.83,1.62,4.36,1.37
			c0.43-0.18,0.82-0.42,1.19-0.71c-1.07-0.12-2.12-0.59-2.96-1.4L108.09,120.99z M98,114.48l7.5,7.24l0.65-2.61l-7.5-7.24L98,114.48
			z M95.48,124.6l-0.65,2.61l2.02,1.95c1.2,1.16,2.83,1.61,4.36,1.37c0.43-0.18,0.83-0.42,1.19-0.71c-1.08-0.12-2.12-0.59-2.96-1.4
			L95.48,124.6z"/>
		
			<linearGradient id="SVGID_00000155121416701972596290000005636419282445783462_" gradientUnits="userSpaceOnUse" x1="80.5299" y1="68.8652" x2="100.4856" y2="128.8781">
			<stop  offset="0.1136" style="stop-color:#EAEEF4"/>
			<stop  offset="0.4144" style="stop-color:#8398BA"/>
			<stop  offset="0.4814" style="stop-color:#C9CDDF"/>
			<stop  offset="0.5055" style="stop-color:#D1D5E4"/>
			<stop  offset="0.5896" style="stop-color:#EBEDF4"/>
			<stop  offset="0.6372" style="stop-color:#F4F6FA"/>
			<stop  offset="0.6624" style="stop-color:#EEF1F8"/>
			<stop  offset="0.6994" style="stop-color:#DDE2F3"/>
			<stop  offset="0.7433" style="stop-color:#C1CBE9"/>
			<stop  offset="0.7669" style="stop-color:#AEBDE2"/>
			<stop  offset="0.8397" style="stop-color:#8398BA"/>
			<stop  offset="0.8721" style="stop-color:#869ABC"/>
			<stop  offset="0.9017" style="stop-color:#91A2C1"/>
			<stop  offset="0.9301" style="stop-color:#A2AFCB"/>
			<stop  offset="0.9578" style="stop-color:#B9C3D8"/>
			<stop  offset="0.9848" style="stop-color:#D6DCE9"/>
			<stop  offset="1" style="stop-color:#EAEEF4"/>
		</linearGradient>
		<path style="fill:url(#SVGID_00000155121416701972596290000005636419282445783462_);" d="M101.22,130.53
			c-0.17,0.07-0.35,0.14-0.52,0.19l-7.4,2.12c-2.32,0.67-4.8,0.23-6.74-1.14c0.5,0.35,1.07,0.62,1.7,0.78
			c2.74,0.68,5.51-0.98,6.19-3.72l0.39-1.55l2.02,1.95C98.06,130.33,99.68,130.78,101.22,130.53z M64.24,99.6
			c-2.71,0.78-4.28,3.6-3.5,6.32c0.16,0.55,0.4,1.04,0.7,1.49c0.03,0.05,0.07,0.1,0.1,0.14c0.25,0.34,0.53,0.66,0.84,0.95
			l23.23,22.44c0.29,0.29,0.61,0.54,0.94,0.77c0.5,0.35,1.07,0.62,1.7,0.78c2.74,0.68,5.51-0.98,6.19-3.72l0.39-1.55L65.77,99.15
			L64.24,99.6z M128.42,120.97c0.45-0.47,0.79-1,1.03-1.56c-0.92,2.19-2.79,3.87-5.11,4.54l-7.39,2.12
			c-0.18,0.05-0.36,0.09-0.55,0.12c1.43-0.6,2.57-1.85,2.97-3.47l0.68-2.73l1.15,1.11C123.23,123.05,126.46,122.99,128.42,120.97z
			 M116.78,123.45c-0.28,1.13-0.92,2.08-1.77,2.76c0.46,0.05,0.93,0.04,1.39-0.03c1.43-0.6,2.57-1.85,2.97-3.47l0.68-2.73
			l-1.94-1.87L116.78,123.45z M108.09,120.99l3.96,3.82c0.84,0.81,1.89,1.28,2.96,1.4c0.85-0.67,1.49-1.62,1.77-2.76l1.33-5.34
			l-7.5-7.24L108.09,120.99z M108.68,109l-2.52,10.12l1.94,1.87l2.52-10.12L108.68,109z M98.65,111.87l7.5,7.24l2.52-10.12
			l-7.5-7.24L98.65,111.87z M91,91.92L80.97,94.8l17.68,17.08l2.52-10.12L91,91.92z M71.53,85.68l1.94,1.87l10.02-2.87l-1.94-1.87
			L71.53,85.68z M69.42,74.47c-1.6,0.46-2.81,1.64-3.36,3.09C66,78.02,66,78.49,66.07,78.95c0.64-0.87,1.57-1.54,2.69-1.87
			l5.29-1.52l-1.94-1.87L69.42,74.47z M113.83,126.92c-0.17,0.07-0.35,0.14-0.52,0.19l-8.97,2.57c-0.18,0.05-0.36,0.09-0.55,0.12
			c1.43-0.6,2.57-1.85,2.97-3.47l0.68-2.73l2.02,1.95C110.67,126.71,112.3,127.17,113.83,126.92z M105.5,121.73l-1.33,5.34
			c-0.28,1.13-0.92,2.08-1.77,2.75c0.46,0.05,0.93,0.04,1.38-0.03c1.43-0.6,2.57-1.85,2.97-3.47l0.68-2.73L105.5,121.73z
			 M95.48,124.6l3.96,3.82c0.84,0.81,1.89,1.28,2.96,1.4c0.85-0.67,1.49-1.62,1.77-2.75l1.33-5.34l-7.5-7.24L95.48,124.6z
			 M68.36,98.41l27.12,26.19L98,114.48L78.39,95.54L68.36,98.41z M68.95,86.43l-2.71,0.78c-1.61,0.46-2.81,1.64-3.37,3.09
			c-0.06,0.46-0.05,0.92,0.02,1.38c0.65-0.87,1.57-1.54,2.69-1.86l5.29-1.52L68.95,86.43z"/>
		
			<linearGradient id="SVGID_00000034055020265988399520000013324332946770232995_" gradientUnits="userSpaceOnUse" x1="71.6168" y1="35.7648" x2="147.2339" y2="35.7653" gradientTransform="matrix(0.9613 -0.2756 0.2756 0.9613 -23.0439 74.4172)">
			<stop  offset="0" style="stop-color:#8F9CC2"/>
			<stop  offset="0.5948" style="stop-color:#004187"/>
			<stop  offset="1" style="stop-color:#004187"/>
		</linearGradient>
		<path style="fill:url(#SVGID_00000034055020265988399520000013324332946770232995_);" d="M129.51,73.6
			c0.98,1.2,1.4,2.84,0.99,4.46l-0.68,2.73l-2.59,0.74l1.33-5.34c0.28-1.13,0.16-2.27-0.27-3.27
			C128.73,73.09,129.14,73.32,129.51,73.6z M118.86,63.81c0.43,0.99,0.55,2.13,0.27,3.26l-1.33,5.34l2.59-0.74l0.68-2.73
			c0.4-1.62-0.02-3.25-0.99-4.46C119.7,64.21,119.29,63.98,118.86,63.81z M117.15,75.03l-2.52,10.12l2.59-0.74l2.52-10.12
			L117.15,75.03z M105.78,54.7c-0.01,0-0.02,0-0.04,0c-0.4,0.05-0.8,0.13-1.19,0.25l-31.05,8.9c-0.39,0.11-0.77,0.26-1.14,0.42
			c-0.01,0-0.02,0.01-0.03,0.01c-0.55,0.25-1.06,0.61-1.5,1.07c-1.96,2.03-1.9,5.26,0.13,7.22l1.15,1.11l38.83-11.13l0.39-1.55
			c0.68-2.74-0.98-5.51-3.72-6.19C107,54.67,106.38,54.63,105.78,54.7z M74.06,75.57l7.5,7.24l26.22-7.52l2.52-10.12L74.06,75.57z
			 M83.5,84.68l7.5,7.24l13.61-3.9l2.52-10.12L83.5,84.68z M73.47,87.55l7.5,7.24L91,91.92l-7.5-7.24L73.47,87.55z M68.76,77.08
			c-1.12,0.32-2.05,0.99-2.69,1.87c0.16,1.07,0.66,2.1,1.5,2.91l3.96,3.82l10.02-2.87l-7.5-7.24L68.76,77.08z M70.89,88.29l7.5,7.24
			l2.59-0.74l-7.5-7.24L70.89,88.29z M68.01,69.55l-1.86,7.47c-0.04,0.18-0.07,0.36-0.1,0.54c0.55-1.45,1.76-2.63,3.36-3.09
			l2.71-0.78l-1.15-1.11c-2.03-1.96-2.08-5.19-0.13-7.22c0.44-0.46,0.95-0.82,1.5-1.07C70.2,65.29,68.59,67.21,68.01,69.55z
			 M65.59,89.81c-1.12,0.32-2.05,0.99-2.69,1.86c0.16,1.07,0.66,2.1,1.5,2.91l3.96,3.82l10.02-2.87l-7.5-7.24L65.59,89.81z
			 M66.07,78.95c-0.28,0.37-0.5,0.78-0.67,1.21c-0.19,1.54,0.32,3.15,1.52,4.31l2.02,1.95l2.59-0.74l-3.96-3.82
			C66.74,81.05,66.23,80.02,66.07,78.95z M66.93,84.47c-1.2-1.16-1.71-2.77-1.52-4.31c-0.07,0.17-0.13,0.35-0.17,0.53l-2.26,9.05
			c-0.04,0.18-0.08,0.36-0.1,0.55c0.55-1.45,1.76-2.63,3.37-3.09l2.71-0.78L66.93,84.47z M62.9,91.68c-0.28,0.37-0.5,0.78-0.66,1.21
			c-0.2,1.54,0.31,3.15,1.52,4.31l2.02,1.95l2.59-0.74l-3.96-3.82C63.56,93.78,63.06,92.75,62.9,91.68z M63.75,97.2
			c-1.2-1.16-1.71-2.77-1.52-4.31c-0.07,0.17-0.13,0.35-0.17,0.53l-1.86,7.46c-0.56,2.27-0.09,4.65,1.24,6.51
			c-0.31-0.44-0.55-0.94-0.7-1.49c-0.78-2.71,0.79-5.54,3.5-6.32l1.54-0.44L63.75,97.2z"/>
	</g>
</g>
</svg>
